# xmcd
#
# Track frame offsets: 
#        150
#        22543
#        41736
#        58447
#        79586
#        98544
#        120662
#        140207
#        157245
#        179677
#        196506
#        216913
#        234016
#
# Disc length: 3377 seconds
#
# Revision: 0
# Processed by: cddbd v1.5.2PL0 Copyright (c) Steve Scherf et al.
# Submitted via: ExactAudioCopy v1.1
#
DISCID=ac0d2f0d
DTITLE=小骆驼 - 草原狼2
DYEAR=2017
DGENRE=
TTITLE0=明天你是否依然爱我
TTITLE1=汴水流
TTITLE2=真的真的好爱你
TTITLE3=我想大声告诉你
TTITLE4=与你到永久
TTITLE5=谁的帐篷
TTITLE6=洒醉的探戈2001
TTITLE7=再会吧我的心上人
TTITLE8=你把我灌醉
TTITLE9=其实你不懂我的心
TTITLE10=北方的狼
TTITLE11=光荣大地
TTITLE12=你
EXTD=
EXTT0=
EXTT1=
EXTT2=
EXTT3=
EXTT4=
EXTT5=
EXTT6=
EXTT7=
EXTT8=
EXTT9=
EXTT10=
EXTT11=
EXTT12=
PLAYORDER=
